<svg width="12" height="12" viewBox="0 0 12 12" fill="none" xmlns="http://www.w3.org/2000/svg">
<g id="done_FILL0_wght400_GRAD0_opsz24 1">
<path id="Vector" d="M4.7751 7.575L9.0126 3.3375C9.1126 3.2375 9.22927 3.1875 9.3626 3.1875C9.49594 3.1875 9.6126 3.2375 9.7126 3.3375C9.8126 3.4375 9.8626 3.55625 9.8626 3.69375C9.8626 3.83125 9.8126 3.95 9.7126 4.05L5.1251 8.65C5.0251 8.75 4.90844 8.8 4.7751 8.8C4.64177 8.8 4.5251 8.75 4.4251 8.65L2.2751 6.5C2.1751 6.4 2.12719 6.28125 2.13135 6.14375C2.13552 6.00625 2.1876 5.8875 2.2876 5.7875C2.3876 5.6875 2.50635 5.6375 2.64385 5.6375C2.78135 5.6375 2.9001 5.6875 3.0001 5.7875L4.7751 7.575Z" fill="#999999"/>
</g>
</svg>
